<?xml version="1.0" standalone="no"?>
<!DOCTYPE svg PUBLIC "-//W3C//DTD SVG 20010904//EN"
 "http://www.w3.org/TR/2001/REC-SVG-20010904/DTD/svg10.dtd">
<svg version="1.0" xmlns="http://www.w3.org/2000/svg"
 width="700.000000pt" height="700.000000pt" viewBox="0 0 700.000000 700.000000"
 preserveAspectRatio="xMidYMid meet">
<metadata>
Created by potrace 1.14, written by Peter Selinger 2001-2017
</metadata>
<g transform="translate(0.000000,700.000000) scale(0.100000,-0.100000)"
fill="#000000" stroke="none">
<path d="M1329 6996 c-2 -2 -49 -6 -104 -10 -117 -7 -265 -26 -325 -41 -260
-66 -479 -214 -648 -438 -154 -203 -214 -385 -240 -722 -9 -131 -9 -4428 1
-4565 14 -206 42 -350 89 -466 126 -313 411 -579 723 -677 89 -28 98 -30 255
-52 123 -17 466 -20 2405 -20 1932 0 2325 3 2430 19 41 6 129 18 132 18 13 -2
183 51 233 73 209 93 407 268 534 475 87 140 128 257 151 427 4 26 9 59 11 73
2 14 7 77 12 140 9 153 9 4391 -1 4545 -9 142 -13 175 -33 275 -9 41 -17 85
-20 96 -7 38 -59 158 -97 226 -130 233 -345 425 -587 525 -77 32 -230 67 -335
78 -33 3 -78 9 -100 12 -42 7 -4479 15 -4486 9z m2341 -2160 c133 -16 307 -69
435 -134 64 -32 205 -121 231 -146 6 -6 37 -33 69 -61 68 -58 174 -184 233
-275 84 -132 171 -358 188 -488 3 -26 9 -72 13 -103 9 -65 7 -224 -3 -295 -14
-94 -17 -109 -37 -184 -84 -312 -281 -585 -558 -773 -315 -214 -742 -278
-1121 -166 -227 66 -412 178 -583 353 -282 288 -417 679 -374 1090 18 177 114
455 183 537 8 8 14 19 14 23 0 29 192 249 286 327 185 155 456 269 704 296 30
3 56 6 58 8 5 4 208 -3 262 -9z"/>
</g>
</svg>
